<?xml version="1.0" encoding="UTF-8"?>
<svg width="1200" height="675" viewBox="0 0 1200 675" fill="none" xmlns="http://www.w3.org/2000/svg">
  <rect width="1200" height="675" fill="#111827"/>
  <rect x="100" y="100" width="1000" height="475" rx="12" fill="#1F2937"/>
  
  <!-- Token Display -->
  <rect x="150" y="150" width="400" height="50" rx="8" fill="#374151"/>
  
  <!-- Token card -->
  <rect x="150" y="230" width="350" height="250" rx="12" fill="#374151"/>
  <circle cx="325" cy="300" r="60" fill="#6366F1"/>
  <path d="M310 300C310 291.716 316.716 285 325 285C333.284 285 340 291.716 340 300C340 308.284 333.284 315 325 315C316.716 315 310 308.284 310 300Z" stroke="white" stroke-width="3"/>
  <path d="M325 330L325 360" stroke="white" stroke-width="3"/>
  <path d="M325 240L325 270" stroke="white" stroke-width="3"/>
  <path d="M355 300L385 300" stroke="white" stroke-width="3"/>
  <path d="M265 300L295 300" stroke="white" stroke-width="3"/>
  <rect x="225" y="380" width="200" height="20" rx="4" fill="#6B7280"/>
  <rect x="225" y="410" width="150" height="20" rx="4" fill="#6B7280"/>
  <rect x="225" y="440" width="250" height="1" fill="#4B5563"/>
  
  <!-- Transaction History -->
  <rect x="550" y="230" width="450" height="50" rx="6" fill="#374151"/>
  <rect x="550" y="290" width="450" height="40" rx="6" fill="#4B5563"/>
  <rect x="550" y="340" width="450" height="40" rx="6" fill="#4B5563"/>
  <rect x="550" y="390" width="450" height="40" rx="6" fill="#4B5563"/>
  <rect x="550" y="440" width="450" height="40" rx="6" fill="#4B5563"/>
  
  <!-- Status indicator -->
  <circle cx="975" cy="310" r="10" fill="#10B981"/>
  <circle cx="975" cy="360" r="10" fill="#10B981"/>
  <circle cx="975" cy="410" r="10" fill="#F59E0B"/>
  <circle cx="975" cy="460" r="10" fill="#EF4444"/>
  
  <rect x="150" y="600" width="900" height="1" fill="#4B5563"/>
  <text x="600" y="640" font-family="Arial" font-size="24" text-anchor="middle" fill="#9CA3AF">Token Claim Status Screen</text>
</svg>
